# xmcd CD database file
#
# Track frame offsets:
#	150
#	31771
#	59168
#	96864
#	135055
#	162543
#	199730
#	231113
#
# Disc length: 3554 seconds
#
# Revision: 0
# Processed by: cddbd v1.5.2PL0 Copyright (c) Steve Scherf et al.
# Submitted via: CDex 1.94
#
DISCID=650de008
DTITLE=GAEL HORELLOU - NASTY FACTORZ
DYEAR=2017
DGENRE=Jazz
TTITLE0=ELECTRIC SHEEPS
TTITLE1=ACTIVE!
TTITLE2=THE METAMORPHOSIS
TTITLE3=PHRYGIAN ROUGHNECK
TTITLE4=INSOLENT CHRONIC
TTITLE5=MASH UP!
TTITLE6=ANCIENT FUTURE
TTITLE7=DREAM AND BASS
EXTD=YEAR: 2017
EXTT0=
EXTT1=
EXTT2=
EXTT3=
EXTT4=
EXTT5=
EXTT6=
EXTT7=
PLAYORDER=
